<svg width="46" height="22" viewBox="0 0 46 22" fill="none" xmlns="http://www.w3.org/2000/svg">
<path d="M8.16 0.459999C9.88 0.459999 11.1867 0.933332 12.08 1.88C12.9733 2.82667 13.42 4.12 13.42 5.76C13.42 7.52 12.86 9.10667 11.74 10.52C10.62 11.9333 9.19333 13.0533 7.46 13.88C5.74 14.6933 4 15.1533 2.24 15.26V4.06L4.72 3.24V14C5.90667 13.64 6.95333 13.08 7.86 12.32C8.76667 11.5467 9.47333 10.6267 9.98 9.56C10.5 8.49333 10.76 7.33333 10.76 6.08C10.76 4.76 10.4267 3.70667 9.76 2.92C9.10667 2.13333 8.2 1.74 7.04 1.74C6.12 1.74 5.16 1.96 4.16 2.4C3.17333 2.82667 2.28 3.38 1.48 4.06L0.98 3.48C1.83333 2.64 2.92 1.92667 4.24 1.34C5.56 0.753332 6.86667 0.459999 8.16 0.459999ZM17.8189 10.06C18.2322 9.11333 18.7189 8.32667 19.2789 7.7L19.2189 7.62C18.7656 7.88667 18.2189 8.02 17.5789 8.02C17.1656 8.02 16.7856 7.95333 16.4389 7.82L15.1389 10.6L14.3189 10.24L15.6589 7.48C15.6189 7.44 15.4922 7.32667 15.2789 7.14C15.0656 6.95333 14.9322 6.76667 14.8789 6.58L16.7989 4.42C16.9456 4.96667 17.2256 5.44667 17.6389 5.86C18.0656 6.26 18.5389 6.46 19.0589 6.46C19.8722 6.46 20.7256 6.16667 21.6189 5.58L21.9789 5.96C21.2056 6.68 20.5456 7.53333 19.9989 8.52C19.4522 9.50667 19.1789 10.5 19.1789 11.5C19.1789 12.1133 19.3322 12.6267 19.6389 13.04C19.9589 13.4533 20.4189 13.66 21.0189 13.66C21.4189 13.66 21.8456 13.5133 22.2989 13.22L22.5989 13.58C22.2122 14.0733 21.7456 14.4667 21.1989 14.76C20.6656 15.0533 20.1056 15.2 19.5189 15.2C18.7856 15.2 18.2189 14.96 17.8189 14.48C17.4189 13.9867 17.2189 13.3667 17.2189 12.62C17.2189 11.8467 17.4189 10.9933 17.8189 10.06ZM28.9219 5.24C28.0419 5.86667 27.3485 6.58 26.8419 7.38C26.3485 8.16667 26.1019 9.09333 26.1019 10.16C26.1019 10.7467 26.2152 11.34 26.4419 11.94C26.6685 12.54 27.0019 13.04 27.4419 13.44C27.8819 13.8267 28.4085 14.02 29.0219 14.02C29.7952 14.02 30.4152 13.74 30.8819 13.18C31.3619 12.62 31.6019 11.9267 31.6019 11.1C31.6019 10.4733 31.4352 9.84 31.1019 9.2C30.7819 8.54667 30.3485 8 29.8019 7.56C29.2552 7.10667 28.6685 6.85333 28.0419 6.8C28.3219 6.49333 28.6219 6.21333 28.9419 5.96C29.2752 5.70667 29.6885 5.4 30.1819 5.04C31.1419 5.36 31.9019 5.95333 32.4619 6.82C33.0352 7.68667 33.3219 8.64 33.3219 9.68C33.3219 10.6 33.1152 11.4933 32.7019 12.36C32.3019 13.2267 31.7152 13.9333 30.9419 14.48C30.1819 15.0133 29.2952 15.28 28.2819 15.28C27.4419 15.28 26.6685 15.0867 25.9619 14.7C25.2685 14.3 24.7152 13.76 24.3019 13.08C23.8885 12.3867 23.6819 11.6267 23.6819 10.8C23.6819 9.37333 24.1285 8.12 25.0219 7.04C25.9285 5.96 27.1019 5.20667 28.5419 4.78L28.9219 5.24ZM41.3942 4.84C42.0876 4.84 42.7142 5.04 43.2742 5.44C43.8476 5.84 44.3009 6.38667 44.6342 7.08C44.9676 7.76 45.1342 8.51333 45.1342 9.34C45.1342 10.5267 44.9409 11.5667 44.5542 12.46C44.1809 13.34 43.6409 14.02 42.9342 14.5C42.2409 14.98 41.4276 15.22 40.4942 15.22C39.8942 15.22 39.2809 15.0533 38.6542 14.72L39.2742 13.18C39.7009 13.7 40.2676 13.96 40.9742 13.96C41.5876 13.96 42.0809 13.6 42.4542 12.88C42.8276 12.1467 43.0142 11.1933 43.0142 10.02C43.0142 8.94 42.7809 8.06667 42.3142 7.4C41.8476 6.72 41.2476 6.38 40.5142 6.38C39.9009 6.38 39.4276 6.75333 39.0942 7.5C38.7609 8.23333 38.5942 9.27333 38.5942 10.62V20.54L36.2542 21.38V6.92C36.2542 6.69333 36.2009 6.51333 36.0942 6.38C36.0009 6.23333 35.8742 6.16 35.7142 6.16C35.4609 6.16 35.1276 6.40667 34.7142 6.9L34.3542 6.54C34.5809 6.04667 34.9076 5.64 35.3342 5.32C35.7742 5 36.2209 4.84 36.6742 4.84C37.3142 4.84 37.7876 5.02667 38.0942 5.4C38.4142 5.76 38.5742 6.32667 38.5742 7.1H38.6742C38.9409 6.42 39.3209 5.87333 39.8142 5.46C40.3076 5.04667 40.8342 4.84 41.3942 4.84Z" fill="white"/>
</svg>
